<svg xmlns="http://www.w3.org/2000/svg" width="70" height="70" viewBox="0 0 70 70" fill="none">
<circle cx="35" cy="35" r="35" fill="#F3F3F3"></circle><path d="M25.0048 19.1444C25.1154 18.505 25.386 18.0623 26.05 18.0131C26.6648 17.964 26.9722 18.2345 27.3165 19.1198C29.1117 19.1198 30.907 19.1198 32.7514 19.1198C32.899 18.4927 33.2064 17.9763 33.9565 18.0008C34.645 18.0254 34.9402 18.4927 35.0508 19.1198C36.883 19.1198 38.6905 19.1198 40.4858 19.1198C40.8915 18.1976 41.199 17.9394 41.8138 18.0131C42.4409 18.0869 42.7114 18.505 42.8098 19.1444C43.609 19.1444 44.4083 19.1444 45.1952 19.1444C48.2078 19.1444 50.4334 21.0749 50.5318 24.0752C50.6548 27.8747 50.5687 31.6989 50.5687 35.5968C46.3388 32.9408 42.0966 32.7687 38.1864 35.9288C34.2639 39.1012 33.5384 43.282 35.2722 48.0037C35.0754 48.016 34.8787 48.0406 34.6942 48.0406C30.5996 48.0406 26.4926 48.0406 22.398 48.0406C19.5206 48.0406 17.2827 45.9134 17.2581 43.036C17.2212 36.7403 17.2212 30.457 17.2581 24.1613C17.295 21.3085 19.5698 19.1567 22.4226 19.1444C23.2587 19.1321 24.1072 19.1444 25.0048 19.1444ZM33.9319 31.6866C34.1532 31.6989 34.3868 31.7112 34.6082 31.6989C35.1861 31.6497 35.6042 31.207 35.6165 30.6537C35.6287 30.125 35.2722 29.6331 34.7311 29.5716C34.1901 29.5101 33.6245 29.5101 33.0834 29.5839C32.5424 29.6454 32.1858 30.1618 32.235 30.6906C32.2842 31.2439 32.5793 31.6128 33.1449 31.6866C33.4031 31.7112 33.6736 31.6866 33.9319 31.6866ZM25.7057 31.6866C25.9516 31.6866 26.1975 31.7112 26.4434 31.6866C27.0091 31.6374 27.3903 31.2439 27.4271 30.6906C27.464 30.125 27.1197 29.6208 26.5418 29.5593C26.0254 29.4978 25.4843 29.4978 24.9556 29.5593C24.3654 29.6331 24.0334 30.1004 24.058 30.6783C24.0826 31.2193 24.4637 31.6251 25.0294 31.6866C25.263 31.7112 25.4843 31.6866 25.7057 31.6866ZM42.0474 31.6866C42.2933 31.6989 42.5392 31.7112 42.7852 31.6866C43.3631 31.6251 43.7197 31.2439 43.7566 30.6906C43.7935 30.0881 43.4738 29.6208 42.8835 29.5593C42.3425 29.4978 41.7769 29.4978 41.2358 29.5716C40.6825 29.6454 40.3874 30.1004 40.412 30.6783C40.4366 31.2439 40.7563 31.5759 41.3096 31.6743C41.5555 31.7112 41.8138 31.6866 42.0474 31.6866ZM25.7426 38.8307C25.7426 38.843 25.7426 38.8553 25.7426 38.8553C26.0131 38.843 26.2713 38.8553 26.5418 38.8184C27.1074 38.7323 27.3903 38.3512 27.4271 37.8101C27.464 37.2568 27.1197 36.7772 26.5787 36.7158C26.0377 36.6543 25.472 36.6543 24.931 36.7158C24.3654 36.7772 24.0457 37.2322 24.0703 37.7978C24.0826 38.3512 24.4514 38.7569 25.0171 38.8184C25.2507 38.8553 25.4966 38.8307 25.7426 38.8307ZM33.9073 38.8307C34.1532 38.8307 34.3991 38.8553 34.645 38.8307C35.2107 38.7692 35.6287 38.3143 35.6165 37.7609C35.6165 37.2322 35.2476 36.7649 34.6942 36.7158C34.1655 36.6666 33.6368 36.6666 33.108 36.728C32.5547 36.7895 32.2104 37.2691 32.2227 37.8101C32.235 38.3512 32.6162 38.7815 33.1695 38.843C33.4154 38.8553 33.6613 38.8307 33.9073 38.8307Z" fill="#76AE71"></path><path d="M52.7697 43.7738C52.7574 48.3603 49.0931 52 44.5189 52C39.9324 52 36.2435 48.2988 36.2435 43.7246C36.2558 39.1258 39.9816 35.4738 44.6296 35.4984C49.1423 35.5107 52.782 39.2365 52.7697 43.7738ZM43.5352 42.2737C44.3468 41.622 44.8509 41.6343 45.3919 42.1999C45.7485 42.5688 46.1912 42.6303 46.6339 42.4581C47.1134 42.2614 47.347 41.8433 47.2979 41.3268C47.2118 40.503 46.7814 39.9374 46.0068 39.6054C45.8223 39.5193 45.6379 39.3349 45.5395 39.1504C45.2936 38.72 44.9739 38.4249 44.4697 38.4618C43.9533 38.4864 43.5475 38.7569 43.4737 39.2857C43.4122 39.7283 43.154 39.8759 42.8097 40.048C41.8875 40.503 41.3957 41.2531 41.408 42.3105C41.408 43.3188 41.9859 43.946 42.8466 44.3394C43.3877 44.5854 43.9656 44.7206 44.5189 44.9051C44.814 45.0034 45.0968 45.1264 45.3919 45.2371C45.3919 45.3108 45.3919 45.3969 45.3919 45.4707C44.9739 45.5814 44.5681 45.7412 44.1377 45.7658C43.9779 45.7781 43.8057 45.483 43.6459 45.3231C43.2893 44.9665 42.8835 44.8436 42.4163 45.0403C41.9244 45.2494 41.6908 45.6428 41.7277 46.1593C41.7768 46.9094 42.1334 47.4996 42.8343 47.807C43.1786 47.9668 43.4 48.1513 43.609 48.4956C43.7811 48.7784 44.273 49.0243 44.605 48.9997C44.937 48.9751 45.4534 48.6308 45.5026 48.3603C45.5887 47.7824 45.933 47.6348 46.3511 47.4012C48.011 46.4667 48.1094 44.3763 46.5355 43.3926C46.0068 43.0606 45.3796 42.9131 44.7894 42.6917C44.3959 42.5442 44.0148 42.4212 43.5352 42.2737Z" fill="#E6724D"></path><path d="M33.9318 31.6866C33.6613 31.6866 33.3908 31.7235 33.1326 31.6743C32.567 31.5882 32.2718 31.2193 32.2227 30.6783C32.1735 30.1495 32.5301 29.6454 33.0711 29.5716C33.6121 29.5101 34.1778 29.5101 34.7188 29.5593C35.2598 29.6208 35.6287 30.1127 35.6041 30.6414C35.5918 31.1947 35.1738 31.6374 34.5958 31.6866C34.3868 31.7112 34.1532 31.6989 33.9318 31.6866Z" fill="white"></path><path d="M25.7058 31.6866C25.4845 31.6866 25.2508 31.7112 25.0295 31.6866C24.4639 31.6251 24.0827 31.2316 24.0581 30.6783C24.0212 30.1004 24.3655 29.6208 24.9557 29.5593C25.4722 29.4978 26.0132 29.4978 26.542 29.5593C27.1199 29.6208 27.4642 30.125 27.4273 30.6906C27.3904 31.2439 27.0092 31.6251 26.4436 31.6866C26.1977 31.7112 25.9517 31.6866 25.7058 31.6866Z" fill="white"></path><path d="M42.0474 31.6866C41.8015 31.6866 41.5556 31.7235 41.3096 31.6743C40.7563 31.5882 40.4366 31.2562 40.412 30.6783C40.3874 30.1003 40.6702 29.6331 41.2359 29.5716C41.7769 29.4978 42.3425 29.4978 42.8835 29.5593C43.4738 29.6208 43.7812 30.0881 43.7566 30.6906C43.732 31.2439 43.3631 31.6251 42.7852 31.6866C42.5393 31.7112 42.2933 31.6866 42.0474 31.6866Z" fill="white"></path><path d="M25.7424 38.8307C25.4965 38.8307 25.2506 38.8553 25.0047 38.8307C24.439 38.7692 24.0824 38.3635 24.0579 37.8101C24.0456 37.2445 24.353 36.7895 24.9186 36.728C25.4596 36.6666 26.0253 36.6666 26.5663 36.728C27.1073 36.7895 27.4639 37.2691 27.4147 37.8224C27.3778 38.3757 27.095 38.7446 26.5294 38.8307C26.2712 38.8676 26.0007 38.8553 25.7301 38.8676C25.7424 38.8553 25.7424 38.843 25.7424 38.8307Z" fill="white"></path><path d="M33.9072 38.8307C33.6613 38.8307 33.4153 38.8553 33.1694 38.8307C32.6161 38.7692 32.2472 38.3389 32.2226 37.7978C32.2103 37.2568 32.5546 36.7772 33.1079 36.7158C33.6367 36.6543 34.1654 36.6543 34.6942 36.7035C35.2475 36.7526 35.6164 37.2199 35.6164 37.7486C35.6164 38.302 35.2106 38.7569 34.645 38.8184C34.399 38.8553 34.1531 38.8307 33.9072 38.8307Z" fill="white"></path><path d="M43.5354 42.2737C44.0149 42.4335 44.3961 42.5442 44.765 42.6794C45.3552 42.9008 45.9946 43.0606 46.5111 43.3803C48.085 44.364 47.9866 46.4544 46.3266 47.3889C45.9085 47.6225 45.5643 47.7824 45.4782 48.348C45.4413 48.6185 44.9126 48.9628 44.5806 48.9874C44.2486 49.012 43.7567 48.7661 43.5846 48.4833C43.3755 48.139 43.1542 47.9545 42.8099 47.7947C42.109 47.4873 41.7524 46.8971 41.7032 46.147C41.6663 45.6305 41.9 45.2248 42.3918 45.028C42.8591 44.8313 43.2649 44.9543 43.6214 45.3108C43.7813 45.4707 43.9657 45.7658 44.1133 45.7535C44.5314 45.7166 44.9494 45.5568 45.3675 45.4584C45.3675 45.3846 45.3675 45.2985 45.3675 45.2248C45.0847 45.1141 44.7896 44.9911 44.4945 44.8928C43.9411 44.696 43.3509 44.5608 42.8222 44.3271C41.9737 43.9337 41.3958 43.3066 41.3835 42.2983C41.3712 41.2531 41.8631 40.503 42.7853 40.0357C43.1296 39.8636 43.3878 39.7037 43.4493 39.2734C43.5231 38.7446 43.9289 38.4741 44.4453 38.4495C44.9494 38.4249 45.2691 38.7078 45.5151 39.1381C45.6134 39.3226 45.7979 39.507 45.9823 39.5931C46.757 39.9251 47.1874 40.503 47.2734 41.3146C47.3226 41.8433 47.1013 42.2614 46.6094 42.4458C46.1668 42.618 45.7118 42.5688 45.3675 42.1876C44.8511 41.622 44.3469 41.6097 43.5354 42.2737Z" fill="white"></path>
</svg>