<svg xmlns="http://www.w3.org/2000/svg" width="70" height="70" viewBox="0 0 70 70" fill="none">
<circle cx="35" cy="35" r="35" fill="#F3F3F3"></circle><path d="M54.575 44.4476C54.4233 43.6281 54.3929 43.0969 54.226 42.5961C53.2698 39.7579 50.0675 38.6349 47.1383 40.0918C45.2867 41.0176 44.1181 42.4898 43.5869 44.5235C40.3997 44.5235 37.2277 44.5235 34.0254 44.5235C33.9343 43.9013 33.9191 43.2638 33.737 42.6871C32.8416 39.8338 29.624 38.6349 26.6949 40.0615C25.1923 40.79 24.0237 41.8827 23.4622 43.5067C23.2649 44.0682 22.9765 44.2655 22.3694 44.2503C20.5937 44.2048 18.8332 44.2352 17.0575 44.2352C15.9344 44.2352 15.1603 43.5674 15.1452 42.6112C15.13 41.6551 15.904 40.9721 17.0271 40.9569C17.5887 40.9418 18.135 40.9569 18.6966 40.9569C19.6679 40.9418 20.3812 40.2891 20.4116 39.4089C20.4419 38.5286 19.6831 37.7546 18.6966 37.7394C16.6021 37.7242 14.4925 37.7394 12.3981 37.7242C11.4268 37.7242 10.759 37.1171 10.6983 36.2521C10.6376 35.2656 11.2598 34.5522 12.2919 34.5371C13.9158 34.5067 15.5246 34.5219 17.1485 34.5219C17.5735 34.5219 18.0136 34.5219 18.4386 34.5219C19.6224 34.5067 20.4116 33.8389 20.4116 32.8676C20.3964 31.8963 19.6375 31.274 18.4234 31.2588C17.9225 31.2588 17.4065 31.274 16.9057 31.2436C16.0406 31.1678 15.4032 30.4544 15.4183 29.6197C15.4335 28.785 16.1013 28.0868 16.9664 28.0413C17.5431 28.0109 18.135 28.0413 18.7118 28.0261C19.6831 27.9958 20.4419 27.2521 20.4268 26.3566C20.3964 25.4916 19.6679 24.8086 18.7118 24.7934C17.7252 24.7782 16.7387 24.8086 15.7522 24.7782C14.6595 24.7631 13.931 24.1104 13.9158 23.1695C13.9158 22.2133 14.6747 21.5 15.7978 21.5C25.253 21.5455 34.7083 21.5911 44.1788 21.6669C46.3946 21.6821 47.5329 22.6838 48.1248 24.8086C48.1855 25.0059 48.5194 25.2184 48.7471 25.2335C50.0523 25.3246 51.3727 25.2639 52.6779 25.446C54.2563 25.6585 55.4857 26.5691 56.3052 27.9351C57.1096 29.2555 57.8229 30.6214 58.5666 31.957C59.2192 33.1256 59.4772 34.3398 59.1889 35.6753C58.8246 37.3752 58.6577 39.1357 58.172 40.79C57.8836 41.7613 57.231 42.6871 56.5481 43.4611C56.1079 43.9468 55.3035 44.0986 54.575 44.4476ZM47.1838 34.1728C49.9612 34.1728 52.6324 34.2032 55.3035 34.1576C56.1838 34.1425 56.5936 33.3229 56.1535 32.5185C55.5616 31.4106 54.9393 30.3178 54.2715 29.2403C53.7858 28.4663 53.0877 27.844 52.1771 27.7378C50.9022 27.5708 49.6122 27.5708 48.3373 27.5556C48.2007 27.5556 47.973 27.8743 47.9427 28.0565C47.6999 30.0447 47.457 32.048 47.1838 34.1728ZM32.4621 31.7445C33.4486 31.0312 33.8432 30.3482 33.8432 29.3313C33.8432 28.2082 33.2665 27.586 32.1434 27.5556C31.3846 27.5253 30.6257 27.5556 29.8669 27.5405C29.3508 27.5253 29.0321 27.7529 28.9562 28.2538C28.6982 29.9991 28.4402 31.7445 28.2277 33.505C28.1974 33.6871 28.3947 34.0514 28.5465 34.0817C28.7741 34.1273 29.1232 34.0362 29.2598 33.8693C29.4419 33.6568 29.4723 33.3229 29.533 33.0194C29.6089 32.6551 29.6544 32.2909 29.6999 31.957C31.0507 31.8507 31.0507 31.8507 31.4453 32.989C31.5212 33.2015 31.5212 33.4747 31.6729 33.6264C31.8854 33.8389 32.2041 33.9603 32.4773 34.1121C32.6291 33.8237 32.9326 33.505 32.9174 33.2318C32.8871 32.731 32.6443 32.2605 32.4621 31.7445ZM41.2648 28.6636C42.0995 28.6636 42.8887 28.7243 43.6476 28.6332C43.9208 28.6028 44.1636 28.2082 44.4064 27.9958C44.1636 27.844 43.9208 27.5708 43.6628 27.5556C42.7825 27.4949 41.9022 27.5556 41.0068 27.5253C40.3694 27.5101 40.081 27.8288 40.0051 28.4055C39.7775 30.0598 39.565 31.699 39.3221 33.3532C39.2614 33.8237 39.4132 34.1121 39.8989 34.1273C40.9157 34.1425 41.9174 34.1728 42.9191 34.0969C43.1619 34.0817 43.3896 33.6871 43.6324 33.4747C43.3896 33.3077 43.1619 33.0345 42.9039 33.0194C42.1602 32.9586 41.4166 33.0042 40.6425 33.0042C40.6881 32.5792 40.7488 32.2909 40.7488 31.9873C40.7488 31.4258 41.0068 31.2285 41.5532 31.2892C41.9478 31.3195 42.3879 31.3651 42.7521 31.2588C43.0253 31.1678 43.2378 30.849 43.4806 30.6214C43.2226 30.4544 42.995 30.1661 42.7218 30.1205C42.1906 30.0447 41.6442 30.0902 41.0523 30.0902C41.1282 29.5742 41.1889 29.1796 41.2648 28.6636ZM36.0894 28.6636C36.9242 28.6636 37.6982 28.7243 38.4722 28.6332C38.7454 28.6028 38.9731 28.2082 39.2159 27.9806C38.9731 27.8288 38.7302 27.5556 38.4722 27.5405C37.5616 27.4949 36.651 27.5253 35.7404 27.5253C35.2243 27.5253 34.936 27.7681 34.8601 28.2689C34.6173 29.9688 34.3593 31.6686 34.1316 33.3532C34.0709 33.8086 34.2378 34.1121 34.7235 34.1273C35.7404 34.1425 36.742 34.1728 37.7437 34.0969C37.9866 34.0817 38.199 33.6871 38.4419 33.4747C38.199 33.3229 37.9714 33.0497 37.7134 33.0194C36.9697 32.9586 36.226 33.0042 35.4368 33.0042C35.4975 32.564 35.5886 32.2453 35.5886 31.9266C35.5886 31.4409 35.7707 31.2436 36.2716 31.2892C36.6662 31.3195 37.0759 31.3044 37.4857 31.2892C37.941 31.274 38.3356 31.0463 38.2598 30.5759C38.2294 30.3786 37.7589 30.1661 37.4705 30.1205C36.9697 30.0447 36.4385 30.1054 35.8314 30.1054C35.9528 29.559 36.0136 29.134 36.0894 28.6636ZM24.9799 31.4713C25.5566 31.4713 26.0726 31.5624 26.5583 31.4409C26.8466 31.3651 27.0591 30.9856 27.3019 30.7428C27.0439 30.5607 26.8163 30.2875 26.5431 30.242C26.1181 30.1509 25.6628 30.2268 25.1772 30.2268C25.253 29.6804 25.3138 29.2706 25.3896 28.785C26.103 28.785 26.7859 28.8001 27.4537 28.785C27.9242 28.785 28.2429 28.5421 28.2429 28.0565C28.2429 27.5708 27.8483 27.5405 27.4841 27.5556C26.7556 27.5556 26.0119 27.586 25.2834 27.5405C24.5853 27.4949 24.2362 27.8136 24.1603 28.4663C23.9478 30.0447 23.7202 31.6231 23.5229 33.2015C23.4773 33.5809 23.3104 34.0817 23.9478 34.1425C24.5397 34.188 24.6915 33.763 24.7522 33.2622C24.7826 32.6551 24.8888 32.0936 24.9799 31.4713Z" fill="#E6724D"></path><path d="M29.0017 41.3515C30.7774 41.3667 32.0826 42.6416 32.0978 44.3869C32.1129 46.5117 30.0944 48.5151 27.9393 48.4999C26.1787 48.4847 24.8128 47.0885 24.8431 45.3583C24.8887 43.2031 26.8313 41.3364 29.0017 41.3515Z" fill="#76AE71"></path><path d="M49.4603 41.3515C51.2816 41.3364 52.602 42.6264 52.602 44.4021C52.602 46.5117 50.6441 48.4696 48.5193 48.4847C46.7588 48.4999 45.3625 47.134 45.3625 45.3886C45.3473 43.279 47.29 41.3667 49.4603 41.3515Z" fill="#76AE71"></path><path d="M14.4926 29.6501C14.4926 30.5303 13.749 31.2892 12.8687 31.2892C12.0188 31.2892 11.2903 30.5759 11.2599 29.7108C11.2296 28.8305 11.9733 28.0565 12.8535 28.0413C13.7186 28.011 14.4775 28.7546 14.4926 29.6501Z" fill="#E6724D"></path><path d="M47.184 34.1728C47.442 32.048 47.6848 30.0447 47.958 28.0565C47.9883 27.8592 48.216 27.5556 48.3526 27.5556C49.6275 27.5708 50.9175 27.586 52.1924 27.7378C53.103 27.8592 53.8011 28.4663 54.2868 29.2403C54.9394 30.3179 55.5768 31.4106 56.1688 32.5185C56.5937 33.3229 56.1991 34.1425 55.3188 34.1576C52.6325 34.2032 49.9614 34.1728 47.184 34.1728Z" fill="white"></path><path d="M32.4621 31.7445C32.6291 32.2605 32.8871 32.731 32.9174 33.2167C32.9478 33.4899 32.6442 33.8086 32.4773 34.0969C32.2041 33.9452 31.9006 33.8237 31.6729 33.6113C31.5363 33.4747 31.5211 33.1863 31.4453 32.9738C31.0507 31.8356 31.0355 31.8356 29.6999 31.9418C29.6392 32.2757 29.6088 32.6399 29.533 33.0042C29.4722 33.2926 29.4419 33.6416 29.2598 33.8541C29.1232 34.021 28.7589 34.1121 28.5464 34.0666C28.3947 34.0362 28.1974 33.672 28.2277 33.4899C28.4402 31.7445 28.6982 29.984 28.9562 28.2386C29.0321 27.7378 29.3508 27.5101 29.8668 27.5253C30.6257 27.5405 31.3846 27.5101 32.1434 27.5405C33.2817 27.586 33.8584 28.1931 33.8432 29.3162C33.8432 30.333 33.4638 31.016 32.4621 31.7445ZM29.8517 30.7276C30.4588 30.7276 31.0051 30.7732 31.5515 30.7125C32.1738 30.6518 32.6442 30.0143 32.5835 29.4224C32.5077 28.7394 31.9765 28.6939 31.4604 28.6636C31.0355 28.6484 30.6105 28.6636 30.1552 28.6636C30.049 29.3769 29.9579 30.0295 29.8517 30.7276Z" fill="white"></path><path d="M41.2648 28.6636C41.1889 29.1796 41.1282 29.5742 41.0523 30.1054C41.6594 30.1054 42.2058 30.0447 42.7218 30.1357C42.995 30.1813 43.2378 30.4544 43.4806 30.6366C43.2378 30.849 43.0405 31.1829 42.7521 31.274C42.3879 31.3802 41.9477 31.3347 41.5531 31.3044C41.0068 31.2588 40.7488 31.4561 40.7488 32.0025C40.7488 32.306 40.6881 32.5944 40.6425 33.0194C41.4166 33.0194 42.1754 32.9738 42.9039 33.0345C43.1619 33.0497 43.3896 33.3381 43.6324 33.4898C43.3896 33.7023 43.1771 34.0969 42.9191 34.1121C41.9174 34.188 40.9005 34.1576 39.8989 34.1425C39.4132 34.1273 39.2614 33.8237 39.3221 33.3684C39.5498 31.7141 39.7774 30.075 40.0051 28.4207C40.081 27.844 40.3693 27.5101 41.0068 27.5405C41.887 27.5556 42.7825 27.5101 43.6628 27.5708C43.9208 27.586 44.1636 27.8592 44.4064 28.0109C44.1484 28.2386 43.9208 28.618 43.6476 28.6484C42.8887 28.7243 42.0995 28.6636 41.2648 28.6636Z" fill="white"></path><path d="M36.0893 28.6635C36.0134 29.1492 35.9527 29.559 35.8617 30.1054C36.4687 30.1054 36.9848 30.0598 37.5008 30.1205C37.7891 30.1661 38.2596 30.3785 38.29 30.5759C38.3659 31.0463 37.9713 31.274 37.516 31.2892C37.1062 31.3043 36.7116 31.3195 36.3018 31.2892C35.801 31.2436 35.6188 31.4409 35.6188 31.9266C35.6188 32.2453 35.5278 32.564 35.4671 33.0042C36.2563 33.0042 36.9999 32.9586 37.7436 33.0194C38.0016 33.0345 38.2293 33.3077 38.4721 33.4747C38.2445 33.6871 38.032 34.0817 37.774 34.0969C36.7723 34.1728 35.7554 34.1424 34.7537 34.1273C34.2681 34.1121 34.1011 33.8086 34.1618 33.3532C34.4047 31.6534 34.6475 29.9536 34.8903 28.2689C34.9662 27.7681 35.2698 27.5253 35.7706 27.5253C36.6812 27.5253 37.5918 27.4949 38.5025 27.5404C38.7605 27.5556 38.9881 27.8288 39.2461 27.9806C39.0033 28.2082 38.7605 28.6028 38.5025 28.6332C37.7133 28.7243 36.9241 28.6635 36.0893 28.6635Z" fill="white"></path><path d="M24.9797 31.4713C24.8886 32.0936 24.7824 32.6551 24.7217 33.2318C24.661 33.7327 24.5092 34.1576 23.9173 34.1121C23.2799 34.0666 23.4468 33.5506 23.4924 33.1711C23.6897 31.5927 23.9021 30.0143 24.1298 28.4359C24.2209 27.7833 24.5547 27.4646 25.2529 27.5101C25.9814 27.5556 26.7251 27.5253 27.4536 27.5253C27.833 27.5253 28.2124 27.5405 28.2124 28.0261C28.2124 28.5118 27.8937 28.7546 27.4232 28.7546C26.7402 28.7698 26.0724 28.7546 25.3591 28.7546C25.2832 29.2403 25.2377 29.6501 25.1467 30.1964C25.6323 30.1964 26.0876 30.1357 26.5126 30.2116C26.7858 30.2723 27.0286 30.5455 27.2714 30.7125C27.0286 30.9553 26.8161 31.3347 26.5278 31.4106C26.0876 31.5624 25.5564 31.4713 24.9797 31.4713Z" fill="white"></path><path d="M29.8516 30.7276C29.9578 30.0143 30.0489 29.3769 30.1703 28.6636C30.6256 28.6636 31.0505 28.6484 31.4755 28.6636C31.9915 28.6939 32.5227 28.7243 32.5986 29.4224C32.6593 30.0143 32.204 30.6517 31.5666 30.7124C31.0202 30.7732 30.4586 30.7276 29.8516 30.7276Z" fill="#E6724D"></path>
</svg>